<svg xmlns="http://www.w3.org/2000/svg" viewBox="0 0 96 96" fill="none" role="img" aria-label="Motor City Law Firm falcon mark">
  <path fill="#0B1F3A" d="M48 6 74 16v20c0 22-9 38-26 50C31 74 22 58 22 36V16Z"/>
  <path fill="#102C52" d="M48 15 64 21v16c0 13-5 24-16 33-11-9-16-20-16-33V21Z"/>
  <path fill="#C9A14A" d="M48 19c-8 0-14 3-19 9l-4-2c6-8 13-12 23-12s17 4 23 12l-4 2c-5-6-11-9-19-9Z"/>
  <path fill="#0B1F3A" d="M48 29 60 26l-1 9c0 8-3 16-11 22-8-6-11-14-11-22l-1-9 12 3Z"/>
  <path fill="#C9A14A" d="M59 31 76 25l-8 12-12 2 3-8Z"/>
  <path fill="#C9A14A" d="M37 31 20 25l8 12 12 2-3-8Z"/>
  <path fill="#C9A14A" d="M48 41c-4 0-7 2-9 5 2 4 5 7 9 10 4-3 7-6 9-10-2-3-5-5-9-5Z"/>
  <circle cx="55" cy="36" r="2.2" fill="#0B1F3A"/>
</svg>